<?xml version="1.0" ?><!-- Uploaded to: SVG Repo, www.svgrepo.com, Generator: SVG Repo Mixer Tools -->
<svg fill="#000000" width="800px" height="800px" viewBox="0 0 32 32" data-name="Layer 2" id="Layer_2" xmlns="http://www.w3.org/2000/svg"><title/><path d="M10,11.06q6.36.19,12.71.26a1.25,1.25,0,0,0,0-2.5l-5.32-.08a4,4,0,0,1-.19-1,1.25,1.25,0,0,0-2.5,0,6.25,6.25,0,0,0,.1,1L10,8.56C8.39,8.51,8.39,11,10,11.06Z"/><path d="M23.4,13.21a1.24,1.24,0,0,0-1.2-.91q-5.94-.3-11.89-.25a1.18,1.18,0,0,0-1.18,1,1.25,1.25,0,0,0-.27,1.09A49.2,49.2,0,0,1,10,24.47a1.26,1.26,0,0,0,.92,1.21A52,52,0,0,0,22.65,26a1.29,1.29,0,0,0,1.25-1.25A58.26,58.26,0,0,0,23.4,13.21Zm-2,10.4a48.33,48.33,0,0,1-9-.25,54.22,54.22,0,0,0-1-8.8c3.2,0,6.41,0,9.61.2A54.52,54.52,0,0,1,21.44,23.61Z"/><path d="M16.3,17.26c.05-1.61-2.45-1.61-2.5,0a14.91,14.91,0,0,0,.3,3.33,1.25,1.25,0,0,0,2.41-.66A11.42,11.42,0,0,1,16.3,17.26Z"/><path d="M20,17a1.25,1.25,0,0,0-2.5,0,21.24,21.24,0,0,0,.41,3.64,1.26,1.26,0,0,0,1.54.87,1.28,1.28,0,0,0,.87-1.54A16.46,16.46,0,0,1,20,17Z"/></svg>
